HIERARCHY
ROOT Hips
{
	OFFSET 54.231899 -13.339015 95.722504
	CHANNELS 6 Xposition Yposition Zposition Xrotation Yrotation Zrotation
	JOINT spine
	{
		OFFSET 0.000000 -0.458069 7.965683
		CHANNELS 3 Xrotation Yrotation Zrotation
		JOINT spine1
		{
			OFFSET 0.000000 -0.000001 10.243103
			CHANNELS 3 Xrotation Yrotation Zrotation
			JOINT spine2
			{
				OFFSET 0.000000 -0.000002 9.814751
				CHANNELS 3 Xrotation Yrotation Zrotation
				JOINT Neck
				{
					OFFSET 0.000000 -1.201384 25.198601
					CHANNELS 3 Xrotation Yrotation Zrotation
					JOINT Head
					{
						OFFSET 0.000000 -0.000002 7.613144
						CHANNELS 3 Xrotation Yrotation Zrotation
						End Site
						{
							OFFSET 0.000000 6.077328 18.428101
						}
					}
				}
				JOINT RightShoulder
				{
					OFFSET -4.132702 0.575449 10.599205
					CHANNELS 3 Xrotation Yrotation Zrotation
					JOINT RightArm
					{
						OFFSET 0.000000 -0.000002 13.901794
						CHANNELS 3 Xrotation Yrotation Zrotation
						JOINT RightArmRoll
						{
							OFFSET 0.000000 -0.000002 7.017883
							CHANNELS 3 Xrotation Yrotation Zrotation
							JOINT RightForeArm
							{
								OFFSET 0.000000 -0.000003 20.440598
								CHANNELS 3 Xrotation Yrotation Zrotation
								JOINT RightForeArmRoll
								{
									OFFSET 0.000000 -0.000001 7.875153
									CHANNELS 3 Xrotation Yrotation Zrotation
									JOINT RightHand
									{
										OFFSET 0.000000 -0.000003 15.803696
										CHANNELS 3 Xrotation Yrotation Zrotation
										End Site
										{
											OFFSET 0.000000 0.000000 0.100006
										}
									}
								}
							}
						}
					}
				}
				JOINT LeftShoulder
				{
					OFFSET 4.132702 0.575449 10.599205
					CHANNELS 3 Xrotation Yrotation Zrotation
					JOINT LeftArm
					{
						OFFSET 0.000000 -0.000002 13.901794
						CHANNELS 3 Xrotation Yrotation Zrotation
						JOINT LeftArmRoll
						{
							OFFSET 0.000000 -0.000002 7.017883
							CHANNELS 3 Xrotation Yrotation Zrotation
							JOINT LeftForeArm
							{
								OFFSET 0.000000 -0.000003 20.440598
								CHANNELS 3 Xrotation Yrotation Zrotation
								JOINT LeftForeArmRoll
								{
									OFFSET 0.000000 -0.000001 7.875153
									CHANNELS 3 Xrotation Yrotation Zrotation
									JOINT LeftHand
									{
										OFFSET 0.000000 -0.000003 15.803696
										CHANNELS 3 Xrotation Yrotation Zrotation
										End Site
										{
											OFFSET 0.000000 0.000000 0.100006
										}
									}
								}
							}
						}
					}
				}
			}
		}
	}
	JOINT RightUpLeg
	{
		OFFSET -7.060482 1.086100 -1.294701
		CHANNELS 3 Xrotation Yrotation Zrotation
		JOINT RightUpLegRoll
		{
			OFFSET 0.000000 -0.000003 18.530800
			CHANNELS 3 Xrotation Yrotation Zrotation
			JOINT RightLeg
			{
				OFFSET 0.000000 0.000004 -22.947601
				CHANNELS 3 Xrotation Yrotation Zrotation
				JOINT RightLegRoll
				{
					OFFSET 0.000000 -0.000004 23.022598
					CHANNELS 3 Xrotation Yrotation Zrotation
					JOINT RightFoot
					{
						OFFSET 0.000000 -0.000004 19.162506
						CHANNELS 3 Xrotation Yrotation Zrotation
						JOINT RightToeBase
						{
							OFFSET 0.000000 -0.000002 16.018799
							CHANNELS 3 Xrotation Yrotation Zrotation
							End Site
							{
								OFFSET 0.006790 0.894205 7.757812
							}
						}
					}
				}
			}
		}
	}
	JOINT LeftUpLeg
	{
		OFFSET 7.060482 1.086100 -1.294701
		CHANNELS 3 Xrotation Yrotation Zrotation
		JOINT LeftUpLegRoll
		{
			OFFSET 0.000000 -0.000003 18.530899
			CHANNELS 3 Xrotation Yrotation Zrotation
			JOINT LeftLeg
			{
				OFFSET 0.000000 -0.000004 22.947502
				CHANNELS 3 Xrotation Yrotation Zrotation
				JOINT LeftLegRoll
				{
					OFFSET 0.000000 -0.000004 23.235504
					CHANNELS 3 Xrotation Yrotation Zrotation
					JOINT LeftFoot
					{
						OFFSET 0.000000 -0.000003 18.949600
						CHANNELS 3 Xrotation Yrotation Zrotation
						JOINT LeftToeBase
						{
							OFFSET 0.000000 -0.000003 16.018799
							CHANNELS 3 Xrotation Yrotation Zrotation
							End Site
							{
								OFFSET -0.030430 0.894205 7.757812
							}
						}
					}
				}
			}
		}
	}
}
MOTION
Frames: 4
Frame Time: 0.041667
53.764496 -12.944914 95.660110 0.528155 -0.479820 1.598103 -2.635443 0.395464 0.212781 -1.271211 0.790980 0.437133 0.373909 0.796157 0.427588 28.602143 -16.668337 1.451619 -4.009956 11.183452 -0.873420 -16.129883 -19.570401 -18.109386 -140.498740 -186.964435 -83.160196 0.000000 0.000008 0.000000 52.461057 11.300149 5.670012 -0.000008 0.000007 -3.009010 -5.000155 -7.999911 0.000009 12.126023 73.788391 -11.353950 -64.087651 110.262612 39.113843 0.000001 -0.000006 0.000003 7.943786 -0.059766 -0.620284 -0.000007 0.000008 3.008100 -5.000136 8.000091 -0.000016 0.578785 -174.761264 -1.800213 -179.999991 0.000005 -1.128998 174.685230 -2.086999 -0.606110 0.000001 -0.000000 0.097874 70.328293 6.913451 1.983927 25.705697 -7.354467 0.369172 -0.587653 175.182249 1.464908 -0.000005 -0.000004 -1.090760 -3.959812 1.935492 0.203690 -0.000005 0.000004 -0.039217 69.502325 -6.786365 -2.373422 25.456959 7.355613 -0.000001 
53.766796 -12.945514 95.663300 0.527794 -0.477495 1.597228 -2.635374 0.395418 0.212851 -1.270901 0.789992 0.437523 0.374223 0.795166 0.428003 28.603377 -16.633169 1.450313 -4.011827 11.164871 -0.870064 -16.111805 -19.571951 -18.081406 -140.494874 -186.919260 -83.174376 -0.000003 0.000006 -0.000000 52.444747 11.296892 5.670196 -0.000009 0.000006 -3.008999 -5.000156 -7.999912 0.000008 12.099672 73.809988 -11.321905 -64.182960 110.260871 39.200426 0.000002 -0.000006 0.000005 7.960476 -0.064772 -0.620827 -0.000006 0.000009 3.008103 -5.000138 8.000092 -0.000016 0.574647 -174.761277 -1.803640 -179.999991 0.000005 -1.128998 174.676733 -2.081991 -0.605956 0.000000 -0.000000 0.098075 70.335840 6.913438 1.983958 25.704579 -7.354460 0.367605 -0.597294 175.180255 1.464848 -0.000005 -0.000004 -1.090680 -3.975263 1.936613 0.203474 -0.000005 0.000003 -0.039196 69.505330 -6.784537 -2.379306 25.456957 7.355612 -0.000001 
53.773296 -12.943013 95.662193 0.527077 -0.475050 1.596360 -2.635173 0.395359 0.212923 -1.270351 0.788937 0.437912 0.374775 0.794110 0.428417 28.603811 -16.597493 1.448777 -4.012976 11.145995 -0.866859 -16.093421 -19.575665 -18.053098 -140.491445 -186.870369 -83.188426 0.000002 0.000004 -0.000001 52.427357 11.293577 5.670074 -0.000005 0.000007 -3.008992 -5.000154 -7.999912 0.000007 12.071839 73.831053 -11.288367 -64.276233 110.259880 39.284700 0.000002 -0.000006 0.000004 7.971067 -0.070005 -0.621221 -0.000004 0.000009 3.008101 -5.000134 8.000091 -0.000019 0.571589 -174.761264 -1.806870 -179.999991 0.000005 -1.128998 174.669780 -2.076990 -0.605744 0.000001 -0.000000 0.098251 70.342418 6.913409 1.983944 25.703566 -7.354467 0.366169 -0.606049 175.179271 1.464304 -0.000005 -0.000004 -1.090600 -3.989685 1.938105 0.203249 -0.000005 0.000004 -0.039176 69.508076 -6.782866 -2.384836 25.456957 7.355613 -0.000001 
53.772697 -12.943415 95.684311 0.526047 -0.472523 1.595558 -2.634870 0.395293 0.213001 -1.269571 0.787846 0.438310 0.375548 0.793017 0.428838 28.603459 -16.561573 1.446986 -4.013640 11.127230 -0.863811 -16.075111 -19.582178 -18.024967 -140.488740 -186.817968 -83.204463 0.000001 0.000007 -0.000000 52.408899 11.290132 5.669429 -0.000006 0.000007 -3.008980 -5.000153 -7.999910 0.000007 12.042635 73.851052 -11.253529 -64.367307 110.259566 39.366707 0.000001 -0.000006 0.000004 7.975139 -0.075404 -0.621446 -0.000003 0.000008 3.008100 -5.000136 8.000092 -0.000018 0.569678 -174.761264 -1.809814 -179.999991 0.000005 -1.128997 174.664685 -2.072988 -0.605557 0.000001 0.000000 0.098399 70.347615 6.913393 1.984017 25.702661 -7.354468 0.364896 -0.613768 175.177277 1.463314 -0.000005 -0.000004 -1.090520 -4.002706 1.939950 0.203014 -0.000005 0.000003 -0.039155 69.510357 -6.781417 -2.389733 25.456957 7.355613 -0.000001 
